<svg xmlns="http://www.w3.org/2000/svg" width="265.344" height="421.62" viewBox="0 0 265.344 421.62">
  <defs>
    <style>
      .cls-1 {
        opacity: 0.2;
      }

      .cls-2 {
        fill: #1c2f47;
      }

      .cls-2, .cls-3, .cls-4, .cls-5 {
        fill-rule: evenodd;
      }

      .cls-3 {
        fill: #ffb41f;
      }

      .cls-4 {
        fill: #0b40c1;
      }

      .cls-5 {
        fill: #1c86f4;
      }
    </style>
  </defs>
  <g class="cls-1">
    <path id="Path_957" data-name="Path 957" class="cls-2" d="M201.525,1395.89c-3.891,4.5-130.488,126.42-145.212,135.75a608.452,608.452,0,0,1-79.43,41.97c-26.793,11.87-54.682,23.86-83.117,31.18-16.277,4.19-32.564,5.42-48.93,1.04-7.288-1.96-14.707-4.4-22.091-4.6l16.778,34.4C125.058,1636.9,259.648,1448.4,201.525,1395.89Z" transform="translate(0 -1214)"/>
    <path id="Path_958" data-name="Path 958" class="cls-3" d="M124.669,1148.3c0.494,5.26.726,10.53,0.711,15.67a378.311,378.311,0,0,1-5.536,60.16c-6.727,40.75-18.095,80.74-29.428,120.4-11.387,39.85-26.661,77.13-52.051,110.22-24.368,31.76-55.111,58.39-88.99,79.57-40.887,25.57-85.969,43.27-132.184,56.55l15.765,32.33c49.833,1.32,100.193-11.88,145.668-31.19,52.76-22.39,102-54.24,145.583-91.36,82.639-70.4,131.59-173.09,139.824-280.89A461.238,461.238,0,0,0,254.443,1085Z" transform="translate(0 -1214)"/>
    <g>
      <path id="Path_959" data-name="Path 959" class="cls-4" d="M-21.652,1219.66c6.818,27.4.1,59.34-6.3,85.56-9.069,37.13-21.486,73.74-39.443,107.57-30.624,57.69-78.6,105.83-141.278,125.1l19.727,40.45c147.934-57.15,212.3-156.07,239.015-239.91,17.256-54.16,29.516-112.05,32.576-169.64Z" transform="translate(0 -1214)"/>
      <path id="Path_960" data-name="Path 960" class="cls-5" d="M82.645,1168.79c-3.06,57.59-15.321,115.48-32.576,169.64-26.712,83.84-91.081,182.76-239.015,239.91l14.429,29.58c224.966-33.2,291.419-215.89,319.259-313.63,14.768-51.84,17.584-111.04,19.337-165.21Z" transform="translate(0 -1214)"/>
    </g>
  </g>
</svg>
