<svg xmlns="http://www.w3.org/2000/svg" width="1279" height="384.62" viewBox="0 0 1279 384.62">
  <defs>
    <style>
      .cls-1 {
        opacity: 0.2;
      }

      .cls-2 {
        fill: #1c2f47;
      }

      .cls-2, .cls-3, .cls-4, .cls-5 {
        fill-rule: evenodd;
      }

      .cls-3 {
        fill: #1c86f4;
      }

      .cls-4 {
        fill: #f5931c;
      }

      .cls-5 {
        fill: #0b40c1;
      }
    </style>
  </defs>
  <g class="cls-1">
    <path id="Path_953" data-name="Path 953" class="cls-2" d="M1455.38,1968.71c-14.43-5.74-88.1-18.68-108.64-23.71C1167.4,1901.08,941.823,2237.8,641,2294.19H988.875c44.945-21.09,88.275-45.63,130.6-71.58q86.085-52.785,169.53-110.1c59.47-40.83,116.89-84.97,167.38-136.63C1461.33,1977.79,1457.06,1966.98,1455.38,1968.71Z" transform="translate(-641 -1909.38)"/>
    <path id="Path_954" data-name="Path 954" class="cls-3" d="M1864.65,2294.19h70.69V2173.64c-8.17-4.11-16.15-7.84-23.58-11.23-123.16-56.19-267.12-81.15-401.13-57.16-76.81,13.75-145.81,46.76-213.09,85.11-34.81,19.85-69.2,40.48-104.75,58.99-27.18,14.15-57.54,25.16-81.33,44.84H1228.6c36.55-10.66,71.82-26.77,106-43.33,66.18-32.07,131.96-64.52,206.56-69.63,73.75-5.06,148.21,12.31,214.81,43.53a509.121,509.121,0,0,1,88.39,52.89C1851.36,2282.88,1858.03,2288.53,1864.65,2294.19Z" transform="translate(-641 -1909.38)"/>
    <path id="Path_955" data-name="Path 955" class="cls-4" d="M1935.34,2022.25c-31.06-25.76-70.11-42.22-110.51-51.5-73.89-16.98-153.98-19.87-229.38-14.28-74.91,5.56-150.5,23.61-214.26,64.7-33.76,21.76-61.49,50.77-92.82,75.61-34.85,27.63-76.1,42.69-114.52,64.27a509.076,509.076,0,0,0-153.49,133.14h125.99c71.22-16.17,179.9-90.14,218.52-107.84a509.018,509.018,0,0,1,124.66-38.39c84.76-14.78,172.11-8.39,254.46,16.07a635.5,635.5,0,0,1,118.67,48.83q28.53,15.27,55.48,33.3c5.24,3.5,11.03,7.98,17.2,11.77V2022.25Z" transform="translate(-641 -1909.38)"/>
    <path id="Path_956" data-name="Path 956" class="cls-5" d="M1935.34,1935.28c-12.44-2.74-23.3-4.93-35.7-7.3a1049.366,1049.366,0,0,0-137.75-17.01c-92.84-5.24-186.64,2.33-276.96,24.79-89.85,22.35-175.62,59.86-251.99,112.35-44.34,30.48-86.16,64.43-131.12,94.05a1142.45,1142.45,0,0,1-133.028,75.37,1098.864,1098.864,0,0,1-168.379,65.07c-15,4.38-30.214,8.28-45.565,11.59h293c84.41-19.75,153.73-53.26,196.61-80.74,84.05-53.88,168.14-107.09,266.15-131.34,88.19-21.83,181.34-23.07,270.31-5.08a607.053,607.053,0,0,1,154.42,53.07V1935.28Z" transform="translate(-641 -1909.38)"/>
  </g>
</svg>
