<svg xmlns="http://www.w3.org/2000/svg" width="1051.5" height="218.032" viewBox="0 0 1051.5 218.032">
  <defs>
    <style>
      .cls-1 {
        opacity: 0.2;
      }

      .cls-2 {
        fill: #1c2f47;
      }

      .cls-2, .cls-3, .cls-4, .cls-5 {
        fill-rule: evenodd;
      }

      .cls-3 {
        fill: #1c86f4;
      }

      .cls-4 {
        fill: #f5931c;
      }

      .cls-5 {
        fill: #0b40c1;
      }
    </style>
  </defs>
  <g id="Mask_Group_1" data-name="Mask Group 1" class="cls-1">
    <g>
      <path id="Path_953" data-name="Path 953" class="cls-2" d="M2630.57,173.944c11.72-3.253,71.58-10.585,88.27-13.435,145.69-24.879,328.95,165.873,573.33,197.82H3009.56c-36.51-11.95-71.71-25.849-106.09-40.553q-69.945-29.9-137.73-62.372c-48.31-23.132-94.96-48.136-135.98-77.4C2625.74,179.083,2629.21,172.963,2630.57,173.944Z" transform="translate(-2240.66 -140.312)"/>
      <path id="Path_954" data-name="Path 954" class="cls-3" d="M2298.09,358.329h-57.43v-68.3c6.64-2.328,13.12-4.439,19.15-6.362,100.06-31.828,217.01-45.967,325.88-32.38,62.4,7.788,118.45,26.489,173.11,48.216,28.28,11.242,56.22,22.932,85.1,33.418,22.08,8.014,46.75,14.252,66.07,25.4h-95.16c-29.69-6.038-58.35-15.166-86.11-24.55-53.77-18.167-107.2-36.552-167.81-39.447-59.92-2.861-120.4,6.977-174.51,24.662a476.62,476.62,0,0,0-71.81,29.965C2308.88,351.921,2303.47,355.121,2298.09,358.329Z" transform="translate(-2240.66 -140.312)"/>
      <path id="Path_955" data-name="Path 955" class="cls-4" d="M2240.66,204.269c25.24-14.59,56.96-23.918,89.78-29.175,60.03-9.615,125.09-11.256,186.34-8.084,60.86,3.148,122.27,13.372,174.07,36.65,27.42,12.324,49.95,28.761,75.4,42.836,28.31,15.65,61.83,24.183,93.04,36.405,48.32,18.921,90.9,44.812,124.69,75.428H2881.63c-57.86-9.162-146.15-51.067-177.52-61.1a552.918,552.918,0,0,0-101.28-21.747c-68.86-8.372-139.82-4.752-206.72,9.1a657.771,657.771,0,0,0-96.4,27.664q-23.19,8.647-45.08,18.861c-4.25,1.985-8.96,4.525-13.97,6.67V204.269Z" transform="translate(-2240.66 -140.312)"/>
      <path id="Path_956" data-name="Path 956" class="cls-5" d="M2240.66,155c10.11-1.556,18.93-2.8,29-4.135,36.94-4.916,74.36-8.164,111.91-9.638,75.42-2.965,151.62,1.322,225,14.046,73,12.66,142.67,33.911,204.71,63.645,36.03,17.265,70,36.5,106.52,53.282A1090.4,1090.4,0,0,0,3025.88,314.9a1153.809,1153.809,0,0,0,136.79,36.866q18.27,3.72,37.01,6.565H2961.65c-68.57-11.191-124.89-30.174-159.72-45.742-68.29-30.526-136.6-60.665-216.22-74.407-71.64-12.363-147.32-13.065-219.6-2.878-44.01,6.205-85.46,16.017-125.45,30.066V155Z" transform="translate(-2240.66 -140.312)"/>
    </g>
  </g>
</svg>
