<?xml version="1.0" standalone="no"?>
<!DOCTYPE svg PUBLIC "-//W3C//DTD SVG 20010904//EN"
 "http://www.w3.org/TR/2001/REC-SVG-20010904/DTD/svg10.dtd">
<svg version="1.0" xmlns="http://www.w3.org/2000/svg"
 width="674.000000pt" height="674.000000pt" viewBox="0 0 674.000000 674.000000"
 preserveAspectRatio="xMidYMid meet">
<metadata>
Created by potrace 1.11, written by Peter Selinger 2001-2013
</metadata>
<g transform="translate(0.000000,674.000000) scale(0.100000,-0.100000)"
fill="#000000" stroke="none">
<path d="M3326 6569 c-21 -5 -74 -28 -117 -50 -167 -87 -295 -285 -389 -601
-46 -153 -190 -902 -190 -985 0 -17 -12 -30 -51 -51 -85 -45 -309 -196 -399
-268 -89 -72 -282 -259 -366 -355 l-49 -57 -215 10 c-293 13 -755 4 -890 -16
-453 -70 -678 -271 -657 -586 25 -364 332 -826 999 -1506 186 -189 227 -221
308 -238 21 -4 32 -20 60 -88 19 -46 36 -86 38 -89 1 -3 -41 -18 -94 -33 -287
-81 -605 -244 -848 -437 -177 -139 -344 -321 -367 -399 -29 -98 56 -210 160
-210 56 0 75 9 176 86 86 64 142 102 230 154 46 27 50 35 -63 -99 -76 -88 -98
-138 -87 -194 18 -86 86 -141 172 -141 60 0 65 3 235 146 123 104 195 158 182
137 -5 -8 -32 -48 -60 -89 -70 -104 -109 -176 -130 -238 -14 -45 -15 -60 -4
-95 29 -99 132 -152 225 -117 15 6 91 70 169 143 269 251 476 422 641 529 49
32 92 58 96 58 4 0 56 -33 117 -74 269 -180 565 -296 909 -358 112 -20 161
-23 393 -23 297 0 390 11 635 72 338 84 677 248 970 467 130 97 395 354 487
471 303 388 483 809 544 1275 21 161 15 517 -11 660 -40 224 -113 446 -207
633 l-39 79 25 33 c80 105 516 465 778 643 26 18 57 46 69 63 27 38 36 117 19
159 -20 48 -82 98 -132 105 -54 8 -181 -28 -323 -90 l-100 -44 60 55 c33 31
110 96 172 146 128 103 148 133 141 214 -6 68 -41 116 -103 139 -67 26 -110
16 -230 -54 -57 -34 -107 -61 -110 -61 -13 0 133 155 210 222 121 106 149 173
105 257 -37 75 -107 111 -183 97 -45 -8 -192 -94 -302 -176 -299 -221 -530
-496 -722 -858 l-59 -111 -70 43 -69 43 -7 59 c-9 66 -28 101 -176 319 -211
310 -406 563 -592 770 -341 379 -671 561 -914 504z m359 -893 c90 -43 187
-128 352 -308 72 -78 131 -143 130 -144 -1 0 -58 3 -127 8 -156 11 -388 -4
-588 -37 -80 -14 -146 -25 -148 -25 -9 0 106 326 141 397 74 150 116 169 240
109z m427 -1186 c132 -22 304 -74 426 -131 112 -52 261 -143 241 -147 -10 -2
-43 14 -75 34 -205 131 -485 222 -755 243 -61 5 -116 14 -122 20 -16 16 132 5
285 -19z m-132 -100 c197 -26 476 -105 601 -171 39 -21 61 -40 72 -65 l17 -34
-40 0 c-21 0 -41 -4 -44 -8 -3 -5 13 -44 35 -88 55 -111 90 -225 96 -320 l6
-80 -80 -52 c-106 -67 -389 -220 -423 -227 -19 -4 -58 6 -126 33 -135 54 -277
98 -392 123 -54 12 -105 29 -115 38 -10 10 -36 79 -57 154 -22 76 -58 182 -80
237 l-41 99 37 33 c89 78 185 151 264 198 l85 52 70 -6 c178 -16 383 -62 553
-126 58 -22 107 -38 109 -36 8 8 -210 107 -297 134 -85 27 -230 60 -331 77
-20 3 -47 17 -60 31 l-23 25 39 -5 c22 -3 78 -10 125 -16z m-1147 -164 c-4 -8
-45 -40 -90 -73 -272 -195 -472 -428 -615 -718 -59 -120 -87 -164 -73 -115 18
63 111 239 184 346 141 210 305 375 520 523 81 55 86 58 74 37z m33 -143 c-3
-10 -8 -31 -12 -47 l-7 -29 39 7 c227 41 274 44 419 24 l91 -12 31 -115 c51
-184 85 -365 74 -394 -5 -13 -57 -75 -116 -138 -58 -63 -154 -172 -212 -244
-58 -71 -114 -137 -124 -146 -14 -12 -53 -17 -186 -22 -150 -6 -238 -15 -339
-32 l-32 -6 -32 88 c-42 115 -80 265 -80 315 0 30 15 65 61 146 105 182 203
315 333 451 106 110 40 65 -84 -57 -113 -112 -205 -231 -309 -397 -64 -103
-91 -132 -91 -97 0 24 125 243 199 347 119 169 285 349 337 365 43 12 46 12
40 -7z m-156 -57 c0 -2 -8 -10 -17 -17 -16 -13 -17 -12 -4 4 13 16 21 21 21
13z m-130 -123 c-96 -104 -192 -233 -279 -375 -40 -64 -78 -119 -87 -122 -10
-4 -9 5 7 37 35 67 115 193 166 260 43 57 250 277 260 277 3 0 -28 -35 -67
-77z m2168 -309 c9 -9 58 -42 107 -73 101 -64 264 -197 295 -241 41 -57 52
-415 19 -613 -6 -38 -9 -71 -6 -73 7 -7 45 159 57 246 6 41 10 154 9 250 -1
167 3 210 21 210 13 0 19 -41 30 -191 11 -144 1 -358 -21 -473 -13 -72 -9 -98
7 -46 39 119 55 229 61 398 3 95 7 171 9 170 1 -2 8 -60 14 -129 9 -94 9 -155
1 -248 -11 -116 -42 -285 -62 -339 -9 -24 -10 -24 -30 -6 -11 9 -41 21 -67 25
-26 4 -58 11 -72 14 -18 4 -35 -1 -57 -17 -18 -13 -73 -52 -123 -88 -49 -36
-131 -86 -182 -112 l-92 -47 -53 38 c-65 46 -236 188 -328 274 l-70 64 2 54
c0 30 6 108 12 174 6 66 11 191 11 278 0 87 4 167 10 177 5 10 38 35 72 56 89
53 240 157 327 226 40 32 75 58 77 58 2 0 12 -7 22 -16z m-3344 -41 c-87 -201
-173 -500 -195 -678 -6 -55 -15 -103 -19 -108 -12 -13 -255 333 -310 442 -32
64 -50 129 -50 184 0 39 5 53 26 72 51 47 157 76 379 105 204 26 188 27 169
-17z m4010 -251 c14 -59 30 -147 37 -197 16 -125 6 -392 -20 -519 -26 -125
-78 -296 -91 -296 -14 0 -13 2 20 105 61 192 74 280 74 510 0 194 -2 219 -28
335 -39 175 -40 184 -28 176 6 -3 22 -54 36 -114z m143 -299 c-3 -10 -5 -2 -5
17 0 19 2 27 5 18 2 -10 2 -26 0 -35z m-2529 -102 c12 -6 41 -42 64 -79 106
-168 210 -310 301 -410 49 -55 48 -72 -17 -237 -47 -120 -126 -381 -126 -415
0 -12 -10 -20 -32 -24 -48 -9 -452 -20 -480 -13 -26 7 -158 137 -230 227 -53
66 -132 183 -177 263 -18 31 -34 57 -36 57 -9 0 64 -159 102 -226 46 -77 126
-184 213 -284 61 -70 78 -100 56 -100 -22 0 -226 219 -296 318 -35 50 -88 133
-117 184 -29 51 -53 87 -53 80 0 -6 17 -52 39 -101 62 -145 164 -297 298 -448
49 -55 68 -84 78 -125 8 -28 12 -54 10 -56 -29 -29 -225 159 -333 321 -101
151 -185 340 -216 483 -7 30 -6 30 29 26 22 -3 44 2 60 12 13 9 37 16 53 16
42 0 64 31 116 163 26 65 72 170 102 234 29 63 54 123 54 133 0 16 18 18 258
15 176 -1 265 -6 280 -14z m2529 -173 c-31 -590 -387 -1169 -920 -1500 -334
-208 -710 -309 -1097 -295 -464 16 -864 184 -1182 495 -85 83 -198 212 -185
212 2 0 34 -35 70 -79 162 -191 414 -365 679 -467 115 -45 296 -88 430 -104
131 -16 418 -8 536 14 504 94 955 362 1255 749 229 294 382 675 404 1003 3 52
8 94 11 94 3 0 2 -55 -1 -122z m-1306 -254 c95 -76 256 -185 342 -234 42 -23
56 -37 53 -49 -3 -9 -18 -61 -34 -116 -34 -116 -89 -259 -142 -365 l-38 -76
-119 -56 c-150 -72 -255 -111 -418 -154 -118 -32 -124 -34 -65 -29 156 15 332
65 528 152 68 30 126 52 128 50 40 -40 -311 -193 -621 -272 l-100 -25 80 5
c146 10 350 68 563 162 102 45 131 54 170 51 l47 -3 -80 -53 c-97 -65 -270
-150 -386 -190 -191 -67 -470 -112 -497 -80 -9 12 -9 21 2 44 11 24 15 106 7
171 0 6 -52 48 -113 92 -62 44 -156 116 -209 159 l-96 78 62 160 c75 194 106
266 156 366 l39 77 102 31 c57 17 198 62 313 99 116 38 217 69 226 70 9 1 54
-29 100 -65z m-2257 -177 c76 -316 248 -602 489 -809 75 -64 67 -80 -10 -20
-167 133 -345 383 -433 608 -38 97 -90 287 -90 329 0 42 19 -5 44 -108z m167
-634 c13 -16 12 -17 -3 -4 -10 7 -18 15 -18 17 0 8 8 3 21 -13z m2604 -168
c-131 -110 -402 -260 -586 -323 -166 -58 -456 -111 -503 -92 -16 7 -17 9 -4 9
67 3 267 36 362 61 239 61 486 181 671 324 62 49 114 66 60 21z"/>
</g>
</svg>
